# xmcd
#
# Track frame offsets:
#	150
#	9024
#	18805
#	32492
#	46221
#	60847
#	78892
#	91232
#	106573
#	119792
#	131432
#	140958
#	156011
#	169377
#	180741
#	193092
#	208292
#	218757
#	227923
#
# Disc length: 3169 seconds
#
# Revision: 1
# Processed by: cddbd v1.5.2PL0 Copyright (c) Steve Scherf et al.
# Submitted via: audiograbber 1.83.01
#
DISCID=f60c5f13
DTITLE=Dixie Aces - Album Mix
DYEAR=2008
DGENRE=Country
TTITLE0=Wabash Cannonball
TTITLE1=Wheels
TTITLE2=Truck Drivin' Man
TTITLE3=Third Man Theme
TTITLE4=Accordeon Inst
TTITLE5=Apres Toi
TTITLE6=Back Track
TTITLE7=Guitar Humoresque
TTITLE8=Ibuku
TTITLE9=If The Jukebox Took Teardrops
TTITLE10=Let's Have A Party
TTITLE11=Midnight Blue
TTITLE12=Midnight In Malaya
TTITLE13=Red Light Boogie
TTITLE14=Sarinade
TTITLE15=Save The Last Dance For Me
TTITLE16=Shindig
TTITLE17=Stupid Cupid
TTITLE18=Telephone Baby
EXTD=
EXTT0=
EXTT1=
EXTT2=
EXTT3=
EXTT4=
EXTT5=
EXTT6=
EXTT7=
EXTT8=
EXTT9=
EXTT10=
EXTT11=
EXTT12=
EXTT13=
EXTT14=
EXTT15=
EXTT16=
EXTT17=
EXTT18=
PLAYORDER=
